<svg xmlns="http://www.w3.org/2000/svg" version="1.1" viewBox="-5.0 -10.0 110.0 135.0">
 <path d="m51.289 18.77c3.6914 0 6.6914-2.9883 6.6914-6.6914 0-3.6992-2.9883-6.6914-6.6914-6.6914-3.6992 0-6.6797 2.9883-6.6797 6.6914 0 3.6992 2.9883 6.6914 6.6797 6.6914z"/>
 <path d="m44.789 24.09-6.9688 9.3594c-2.6094 3.4883-4.0898 5.0508-3.8906 7.9414 0.17187 2.5117 2.9492 4.6016 7.6211 7.8516l4.8086 3.0781c0.39062 0.26172 0.51172 0.78125 0.26953 1.1797-0.23828 0.39062-0.73828 0.53125-1.1484 0.32031l-1.8906-1.0781c-1.0508 8.0312-1.6602 14.551-3.1602 20.719 0.12109 0.69141 0.73828 1.1914 1.4414 1.1914h3.1406 7.6992 9.0195c0.30078 0 0.51953-0.26953 0.46875-0.55859-1.4219-9.0117 4.9297-16.551 3.7617-24.25-1-6.5312-4.3086-10.27-8.1016-12.422-0.32031-0.17969-0.30078-0.33984 0-0.51953 4.2305-2.5 0.82031-5.6211-1.9609-9.0312-2.0508-2.5195-3.1797-4.0781-5.5586-5.1289-1.9609-0.80078-4.3984-0.19922-5.5508 1.3594zm-0.37891 20.18c0 0.19141-0.23828 0.28125-0.37109 0.14062l-2.2383-2.3984c-1.2383-1.0586-0.53125-1.7891 0.5-3.1406 0 0 0.96094-1.1797 0.96094-1.1914l0.80078-1.0195c0.19922-0.25 0.60156-0.12109 0.60938 0.19922l-0.25 7.3906z" fill-rule="evenodd"/>
 <path d="m47.398 76.641 0.60156 14.18c0 5.0508 6.6406 5.0508 6.6406 0 0 0 0.60156-10.609 0.60156-14.18z" fill-rule="evenodd"/>
<text x="0.0" y="117.5" font-size="5.0" font-weight="bold" font-family="Arbeit Regular, Helvetica, Arial-Unicode, Arial, Sans-serif" fill="#000000">Created by Milton Raposo C. R&#234;go Jr.</text><text x="0.0" y="122.5" font-size="5.0" font-weight="bold" font-family="Arbeit Regular, Helvetica, Arial-Unicode, Arial, Sans-serif" fill="#000000">from Noun Project</text></svg>