<svg xmlns="http://www.w3.org/2000/svg" version="1.1" viewBox="-5.0 -10.0 110.0 135.0">
 <path d="m93.184 65.191h-36.426l7.3555-27.344 30.434 8.125c0.99609 0.27344 2.082-0.32422 2.3516-1.3594 5.3359-18.332-6.6133-38.867-25.148-43.402-18.941-5.0547-38.477 6.1836-43.555 25.055-0.28906 0.99219 0.35547 2.1094 1.3594 2.3594l30.84 8.2305-7.6211 28.336h-27.637l-12.703-30.262c-1.0117-2.4062-3.3477-3.9609-5.957-3.9609-4.4062-0.125-7.7344 4.75-6.0195 8.8086l12.094 31.027c1.9023 4.875 6.5078 8.0273 11.738 8.0273h4.6562l-4.0273 11.953c-1.2422 3.375 1.5938 7.2344 5.1836 7.0703 2.3008 0 4.3438-1.4648 5.0781-3.6484l5.1797-15.375h32.453l5.2539 17.355c0.6875 2.2773 2.75 3.8047 5.1289 3.8047 3.5547 0.21094 6.4375-3.5312 5.3047-6.9102l-4.3125-14.25h8.9922c3.7578 0 6.8164-3.0586 6.8164-6.8203 0.003906-3.7617-3.0547-6.8203-6.8125-6.8203zm-13.898-56.602c11.027 6.6172 17.141 20.562 14.344 33.156l-15.031-4.0117c1.2148-5.2266 4.1406-20.023 0.6875-29.145zm-46.816 16.832c4.2617-12.715 16.059-21.121 29.031-21.555-3.2539 2.7344-5.6484 6.168-8.3203 11.309-2.8633 5.6172-4.7969 11.391-5.6758 14.258zm24.156-8.5469c3.2266-6.3125 8.2969-13.508 14.133-11.949 10.633 4.207 5.1484 25.613 4.1133 31.812l-23.652-6.3125c0.86719-2.793 2.7344-8.3164 5.4062-13.551z"/>
<text x="0.0" y="117.5" font-size="5.0" font-weight="bold" font-family="Arbeit Regular, Helvetica, Arial-Unicode, Arial, Sans-serif" fill="#000000">Created by QualityIcons</text><text x="0.0" y="122.5" font-size="5.0" font-weight="bold" font-family="Arbeit Regular, Helvetica, Arial-Unicode, Arial, Sans-serif" fill="#000000">from Noun Project</text></svg>